# xmcd
# 
# Track frame offsets:
#     150
#     14852
#     48754
#     77856
# 
# Disc length: 1304
# 
# Revision: 0
# Processed by: cddbd v1.5.2PL0 Copyright (c) Steve Scherf et al.
# Submitted via: fre:ac v1.0.17
# 
DISCID=2b051604
DTITLE=Split - DOTD - SAPMW - Endless Nightmares Of A Vicious Circle
DYEAR=2015
DGENRE=Depressive Black Metal
TTITLE0=01. A Taste of InsanIty Part 3
TTITLE1=02. No Matter
TTITLE2=03. Lonliness Is Everywhere
TTITLE3=04. Close Up To The Depressive Side Of Life
EXTD=
EXTT0=
EXTT1=
EXTT2=
EXTT3=
PLAYORDER=
